<svg xmlns="http://www.w3.org/2000/svg" width="79" height="79" viewBox="0 0 79 79">
    <g fill="none" fill-rule="evenodd">
        <g>
            <g>
                <g>
                    <g transform="translate(-293 -2266) translate(-97 1909) translate(390 351) translate(0 6)">
                        <rect width="79" height="79" fill="#91CC00" opacity=".1" rx="15"/>
                        <path fill="#92CA00" fill-rule="nonzero" d="M41.083 46.917H37.25c-1.054 0-1.917-.863-1.917-1.917H21.936v7.667c0 2.108 1.725 3.833 3.833 3.833h26.814c2.109 0 3.834-1.725 3.834-3.833V45H43c0 1.054-.862 1.917-1.917 1.917zM54.5 29.667h-7.667c0-4.236-3.43-7.667-7.666-7.667-4.236 0-7.667 3.43-7.667 7.667h-7.667C21.725 29.667 20 31.392 20 33.5v5.75c0 2.127 1.706 3.833 3.833 3.833h11.5v-1.916c0-1.055.863-1.917 1.917-1.917h3.833c1.055 0 1.917.862 1.917 1.917v1.916h11.5c2.108 0 3.833-1.725 3.833-3.833V33.5c0-2.108-1.725-3.833-3.833-3.833zm-19.167 0c0-2.109 1.725-3.834 3.834-3.834 2.108 0 3.833 1.725 3.833 3.834h-7.686.02z"/>
                    </g>
                </g>
            </g>
        </g>
    </g>
</svg>
