<svg xmlns="http://www.w3.org/2000/svg" width="79" height="79" viewBox="0 0 79 79">
    <g fill="none" fill-rule="evenodd">
        <g>
            <g>
                <g>
                    <g transform="translate(-293 -2480) translate(-97 1909) translate(390 565) translate(0 6)">
                        <rect width="79" height="79" fill="#00B4F6" opacity=".1" rx="15"/>
                        <path fill="#00B5F3" fill-rule="nonzero" d="M51.667 26.333H50V23h-3.333v3.333H33.333V23H30v3.333h-1.667c-1.85 0-3.316 1.5-3.316 3.334L25 53c0 1.84 1.492 3.333 3.333 3.333h23.334C53.5 56.333 55 54.833 55 53V29.667c0-1.834-1.5-3.334-3.333-3.334zm0 26.667H28.333V36.333h23.334V53zm0-20H28.333v-3.333h23.334V33zM40 41.333h8.333v8.334H40v-8.334z"/>
                    </g>
                </g>
            </g>
        </g>
    </g>
</svg>
