<svg xmlns="http://www.w3.org/2000/svg" width="79" height="79" viewBox="0 0 79 79">
    <g fill="none" fill-rule="evenodd">
        <g>
            <g>
                <g>
                    <g transform="translate(-752 -2266) translate(-97 1909) translate(849 351) translate(0 6)">
                        <rect width="79" height="79" fill="#F20089" opacity=".1" rx="15"/>
                        <path fill="#EF0189" fill-rule="nonzero" d="M50.007 29h-19.14c-.515-.007-1.006-.225-1.357-.603-.351-.377-.533-.882-.503-1.397-.002-1.052.81-1.926 1.86-2h19.14c.553 0 1-.448 1-1s-.447-1-1-1h-19.14c-2.154.075-3.861 1.844-3.86 4-.01.163-.01.327 0 .49-.01.08-.01.16 0 .24V51c-.001 2.156 1.706 3.925 3.86 4h19.14c.553 0 1-.448 1-1V30.07c.001-.565-.436-1.033-1-1.07z"/>
                    </g>
                </g>
            </g>
        </g>
    </g>
</svg>
