<svg xmlns="http://www.w3.org/2000/svg" width="79" height="79" viewBox="0 0 79 79">
    <g fill="none" fill-rule="evenodd">
        <g>
            <g>
                <g>
                    <g transform="translate(-752 -2480) translate(-97 1909) translate(849 565) translate(0 6)">
                        <rect width="79" height="79" fill="#594DA8" opacity=".1" rx="15"/>
                        <path fill="#5950A6" fill-rule="nonzero" d="M44.346 25c-.78.006-1.555.044-2.373.264-.892.242-1.738.628-2.505 1.143-1.077-.633-2.12-1.153-3.12-1.276-1.242-.153-2.395-.07-3.735-.042-1.59.033-2.626.844-4.308 1.494-1.68.647-3.844 1.274-6.899 1.274H20v13.535l.792.395 2.591 1.276 9.23 10.282.043.044c1.055 1.043 2.478 1.302 3.735 1.23 1.259-.07 2.44-.439 3.384-1.01 2.077-1.253 7.734-5.186 7.734-5.186l.132-.088.089-.088c.67-.665 1.005-1.476 1.23-2.328l5.405-2.726 4.042-1.36.968-.31V27.857h-1.406c-2.364.016-4.708-.432-6.9-1.32-1.681-.656-2.702-1.459-4.308-1.493-.858-.017-1.637-.049-2.416-.043h.001zm.043 2.813c.632-.005 1.364.028 2.286.044.148.005 1.5.582 3.384 1.319 1.593.626 3.806 1.181 6.504 1.361v8.965l-3.253 1.1h-.087l-.089.042-4.26 2.154c-.227-.652-.586-1.251-1.056-1.758l-.088-.132-5.977-7.338-.879-1.1-1.1.88-3.778 3.076c-1.268.88-2.296.626-3.34.133-.302-.144-.285-.187-.527-.352l6.417-5.318.087-.088c1.905-1.89 3.077-2.543 4.086-2.812.507-.138 1.04-.17 1.671-.176h-.001zm-9.798.044c.47-.018.94-.003 1.407.043.368.044.786.358 1.143.484-.144.132-.248.208-.397.352l-.087.088-7.69 6.37-1.188.968 1.055 1.098s1.017 1.1 2.593 1.847c1.577.746 4.01 1.17 6.196-.352l.089-.088 2.724-2.24 5.186 6.371.043.089.044.042c.928.918.907 2.362 0 3.298-.011.01.011.032 0 .042-.011.007-.197.116-.22.133l-1.846-2.506-2.285 1.671 1.803 2.416c-.731.495-1.06.754-1.846 1.275l-1.89-2.55-2.286 1.672 1.803 2.415c-.16.099-.49.32-.616.397-.444.269-1.302.571-2.066.615-.718.039-1.268-.127-1.537-.352l-.043-.044-9.405-10.414-.176-.221-2.287-1.142v-9.097c2.686-.176 4.917-.709 6.504-1.318 1.88-.72 3.22-1.313 3.384-1.319l1.89-.043h.001z"/>
                    </g>
                </g>
            </g>
        </g>
    </g>
</svg>
